<svg width="233" height="232" viewBox="0 0 233 232" fill="none" xmlns="http://www.w3.org/2000/svg">
<g id="Group 184">
<g id="Group 183">
<g id="&#236;&#149;&#140;&#235;&#176;&#148;&#237;&#138;&#184;&#235;&#161;&#156;&#236;&#138;&#164; &#235;&#170;&#168;&#235;&#141;&#184;">
<g id="Group 182">
<g id="Vector 52">
<path fill-rule="evenodd" clip-rule="evenodd" d="M35.2716 133.014L35.2716 143.999C35.2716 143.999 36.7131 145.296 40.4365 144.499C44.16 143.702 45.136 140.999 45.136 140.999L39.9809 132.744C40.4505 131.825 41.1025 130.836 41.7987 129.78C43.0269 127.917 44.3925 125.846 45.136 123.583C45.483 122.527 45.4723 121.899 45.4535 120.798C45.448 120.477 45.4418 120.115 45.4437 119.69C45.4622 115.476 43.7174 111.59 42.8129 109.914C42.8129 109.914 42.5402 109.42 42.2352 109.097L42.3043 108.977C43.5458 106.813 46.347 101.93 41.6393 98.312C41.0324 97.978 40.3465 97.7041 39.5736 97.5045C38.6071 97.2941 37.5387 97.3419 36.3988 97.999C35.6532 98.4288 34.877 99.1192 34.0789 100.169C33.4527 100.992 33.3 102.254 33.1396 103.58C33.0399 104.403 32.9373 105.251 32.7163 106.033C32.7163 106.033 28.2926 114.064 29.0555 119.037C29.8184 124.01 31.9365 129.999 35.2716 133.014Z" fill="white"/>
<path d="M39.5736 97.5045C37.975 97.1564 36.0974 97.515 34.0789 100.169M39.5736 97.5045C40.3465 97.7041 41.0324 97.978 41.6393 98.312M39.5736 97.5045C38.6071 97.2941 37.5387 97.3419 36.3988 97.999M42.2352 109.097C42.5402 109.42 42.8129 109.914 42.8129 109.914M42.2352 109.097C42.2576 109.058 42.2807 109.018 42.3043 108.977M42.2352 109.097L42.3043 108.977M32.7163 106.033C30.2008 105.567 22.4587 103.614 20.3791 100.675C18.2996 97.7369 6.71602 101.565 1.18419 103.846C6.57155 107.997 13.4219 109.887 17.6037 110.603C22.5321 111.446 23.3231 118.806 29.0555 119.037M32.7163 106.033C32.7163 106.033 28.2926 114.064 29.0555 119.037M32.7163 106.033C32.9373 105.251 33.0399 104.403 33.1396 103.58C33.3 102.254 33.4527 100.992 34.0789 100.169M29.0555 119.037C29.8184 124.01 31.9365 129.999 35.2716 133.014L35.2716 143.999C35.2716 143.999 36.7131 145.296 40.4365 144.499C44.16 143.702 45.136 140.999 45.136 140.999L39.9809 132.744C40.4505 131.825 41.1025 130.836 41.7987 129.78C43.0269 127.917 44.3925 125.846 45.136 123.583M34.0789 100.169C34.877 99.1192 35.6532 98.4288 36.3988 97.999M41.6393 98.312C42.0159 96.6767 41.8229 91.4581 40.4365 89.499C38.4365 90.999 36.3988 96.4034 36.3988 97.999M41.6393 98.312C46.347 101.93 43.5458 106.813 42.3043 108.977M42.8129 109.914C43.7174 111.59 45.4622 115.476 45.4437 119.69C45.4418 120.115 45.448 120.477 45.4535 120.798C45.4723 121.899 45.483 122.527 45.136 123.583M42.8129 109.914C48.15 112.262 53.0288 113.097 56.0553 112.18C61.0511 110.667 62.7448 112.743 69.7183 121.287C71.194 123.095 72.9062 125.193 74.9361 127.608C68.3055 128.625 58.9255 124.85 55.2515 123.162C54.21 122.684 52.6054 123.195 50.9428 123.724C48.6992 124.439 46.35 125.187 45.136 123.583" stroke="black"/>
</g>
<g id="Vector 53">
<path d="M42.6293 109.914C43.5338 111.59 45.2786 115.476 45.2601 119.69C45.2582 120.115 45.2644 120.477 45.2699 120.798C45.2887 121.899 45.2994 122.527 44.9524 123.583C46.1664 125.187 48.5156 124.439 50.7592 123.724C52.4218 123.195 54.0264 122.684 55.0679 123.162C58.7419 124.85 68.1219 128.625 74.7526 127.608C72.7226 125.193 71.0105 123.095 69.5347 121.287C62.5612 112.743 60.8675 110.667 55.8717 112.18C52.8452 113.097 47.9664 112.262 42.6293 109.914Z" fill="#303030"/>
<path d="M32.5327 106.033C30.0173 105.567 22.2751 103.614 20.1956 100.675C18.116 97.7369 6.53242 101.565 1.0006 103.846C6.38796 107.997 13.2383 109.887 17.4202 110.603C22.3485 111.446 23.1395 118.806 28.8719 119.037C28.109 114.064 32.5327 106.033 32.5327 106.033Z" fill="#303030"/>
<path d="M39.39 97.5045C37.7914 97.1564 35.9138 97.515 33.8953 100.169M39.39 97.5045C40.1629 97.7041 40.8488 97.978 41.4557 98.312M39.39 97.5045C38.4235 97.2941 37.3551 97.3419 36.2152 97.999M42.0516 109.097C42.3566 109.42 42.6293 109.914 42.6293 109.914M42.0516 109.097C42.0741 109.058 42.0971 109.018 42.1207 108.977M42.0516 109.097L42.1207 108.977M32.5327 106.033C30.0173 105.567 22.2751 103.614 20.1956 100.675C18.116 97.7369 6.53243 101.565 1.0006 103.846C6.38796 107.997 13.2383 109.887 17.4202 110.603C22.3485 111.446 23.1395 118.806 28.8719 119.037M32.5327 106.033C32.5327 106.033 28.109 114.064 28.8719 119.037M32.5327 106.033C32.7537 105.251 32.8563 104.403 32.956 103.58C33.1164 102.254 33.2691 100.992 33.8953 100.169M28.8719 119.037C29.6348 124.01 31.7529 129.999 35.088 133.014L35.088 143.999C35.088 143.999 36.5295 145.296 40.2529 144.499C43.9764 143.702 44.9524 140.999 44.9524 140.999L39.7973 132.744C40.2669 131.825 40.9189 130.836 41.6151 129.78C42.8433 127.917 44.2089 125.846 44.9524 123.583M33.8953 100.169C34.6934 99.1192 35.4696 98.4288 36.2152 97.999M41.4557 98.312C41.8323 96.6767 41.6393 91.4581 40.2529 89.499C38.2529 90.999 36.2152 96.4034 36.2152 97.999M41.4557 98.312C46.1634 101.93 43.3622 106.813 42.1207 108.977M42.6293 109.914C43.5338 111.59 45.2786 115.476 45.2601 119.69C45.2582 120.115 45.2644 120.477 45.2699 120.798C45.2887 121.899 45.2994 122.527 44.9524 123.583M42.6293 109.914C47.9664 112.262 52.8452 113.097 55.8717 112.18C60.8675 110.667 62.5612 112.743 69.5347 121.287C71.0105 123.095 72.7226 125.193 74.7526 127.608C68.1219 128.625 58.7419 124.85 55.0679 123.162C54.0264 122.684 52.4218 123.195 50.7592 123.724C48.5156 124.439 46.1664 125.187 44.9524 123.583" stroke="black"/>
</g>
<g id="Vector 54">
<path fill-rule="evenodd" clip-rule="evenodd" d="M40.2529 89.499C38.2529 90.999 36.2152 96.4034 36.2152 97.999L36.2322 97.9893C37.3657 97.3414 38.4283 97.2951 39.39 97.5045C40.1629 97.7041 40.8488 97.978 41.4557 98.312C41.8323 96.6767 41.6393 91.4581 40.2529 89.499Z" fill="#EDAB6F"/>
<path d="M42.0516 109.097C42.3566 109.42 42.6293 109.914 42.6293 109.914M42.0516 109.097C42.0741 109.058 42.0971 109.018 42.1207 108.977M42.0516 109.097L42.1207 108.977M32.5327 106.033C30.0173 105.567 22.2751 103.614 20.1956 100.675C18.116 97.7369 6.53243 101.565 1.0006 103.846C6.38796 107.997 13.2383 109.887 17.4202 110.603C22.3485 111.446 23.1395 118.806 28.8719 119.037M32.5327 106.033C32.5327 106.033 28.109 114.064 28.8719 119.037M32.5327 106.033C32.7537 105.251 32.8563 104.403 32.956 103.58C33.1164 102.254 33.2691 100.992 33.8953 100.169M28.8719 119.037C29.6348 124.01 31.7529 129.999 35.088 133.014L35.088 143.999C35.088 143.999 36.5295 145.296 40.2529 144.499C43.9764 143.702 44.9524 140.999 44.9524 140.999L39.7973 132.744C40.2669 131.825 40.9189 130.836 41.6151 129.78C42.8433 127.917 44.2089 125.846 44.9524 123.583M33.8953 100.169C34.6934 99.1192 35.4696 98.4288 36.2152 97.999M33.8953 100.169C34.6995 99.1113 35.4814 98.4183 36.2322 97.9893M41.4557 98.312C40.8488 97.978 40.1629 97.7041 39.39 97.5045C38.4283 97.2951 37.3657 97.3414 36.2322 97.9893M41.4557 98.312C41.8323 96.6767 41.6393 91.4581 40.2529 89.499C38.2529 90.999 36.2152 96.4034 36.2152 97.999M41.4557 98.312C46.1634 101.93 43.3622 106.813 42.1207 108.977M42.6293 109.914C43.5338 111.59 45.2786 115.476 45.2601 119.69C45.2582 120.115 45.2644 120.477 45.2699 120.798C45.2887 121.899 45.2994 122.527 44.9524 123.583M42.6293 109.914C47.9664 112.262 52.8452 113.097 55.8717 112.18C60.8675 110.667 62.5612 112.743 69.5347 121.287C71.0105 123.095 72.7226 125.193 74.7526 127.608C68.1219 128.625 58.7419 124.85 55.0679 123.162C54.0264 122.684 52.4218 123.195 50.7592 123.724C48.5156 124.439 46.1664 125.187 44.9524 123.583M36.2152 97.999L36.2322 97.9893M36.2152 97.999C36.2208 97.9958 36.2265 97.9925 36.2322 97.9893" stroke="black"/>
</g>
</g>
<circle id="Ellipse 27" cx="38.1875" cy="100.749" r="0.75" transform="rotate(90 38.1875 100.749)" fill="black"/>
</g>
<circle id="Ellipse 85" cx="45" cy="153.999" r="4" fill="#7D0126"/>
<circle id="Ellipse 86" opacity="0.8" cx="52" cy="163.999" r="4" fill="#7D0126"/>
<circle id="Ellipse 87" opacity="0.6" cx="60" cy="173.999" r="4" fill="#7D0126"/>
<circle id="Ellipse 88" opacity="0.4" cx="70" cy="181.999" r="4" fill="#7D0126"/>
<circle id="Ellipse 89" opacity="0.2" cx="81" cy="188.999" r="4" fill="#7D0126"/>
<circle id="Ellipse 90" opacity="0.1" cx="94" cy="193.999" r="4" fill="#7D0126"/>
</g>
</g>
</svg>
