<svg width="66" height="47" viewBox="0 0 66 47" fill="none" xmlns="http://www.w3.org/2000/svg">
<path d="M63.0236 30.9453L64.2085 30.9173L63.9815 29.754L61.6058 17.5817L61.5116 17.0992L61.072 16.8791L48.5093 10.5883C48.6315 10.3563 48.7945 10.1134 48.9968 9.81189C49.0683 9.70533 49.1447 9.59145 49.226 9.46815C49.7287 8.70517 50.2787 7.73044 50.2787 6.29319C50.2787 4.75957 49.9285 3.40151 49.0382 2.42371C48.132 1.42835 46.8258 1 45.2943 1C43.4533 1 42.0483 1.49123 41.0996 2.57159C40.1887 3.60882 39.8557 5.01967 39.7308 6.49257L39.6581 7.35046L40.4956 7.54988L42.5874 8.04793L43.819 8.34117V7.07512C43.819 6.62519 43.9529 6.37454 44.0746 6.23853C44.2034 6.09464 44.3761 6.01426 44.5535 5.99627C44.738 5.97756 44.8821 6.02971 44.9611 6.09126C45.0178 6.13542 45.0862 6.21466 45.0862 6.41272C45.0862 6.52846 45.0495 6.67942 44.9106 6.91852C44.7715 7.15818 44.5804 7.40554 44.3179 7.7452C44.3006 7.76762 44.283 7.79045 44.265 7.81371C43.7849 8.43554 43.16 9.2581 42.8213 10.3833L38.9545 12.2673L37.1791 13.1323L38.9271 14.0514L47.2835 18.4452L49.3361 28.9534L45.1484 28.9804L44.1211 28.9871L44.1555 30.0138L44.6535 44.9005L44.6858 45.8671H45.6529H57.6908H58.7023L58.6907 44.8557L58.5327 31.0514L63.0236 30.9453ZM32.4596 45.887H33.4546L33.4596 44.8921L33.5294 31.0521L38.1208 30.9453L39.3063 30.9177L39.079 29.7538L36.7033 17.5915L36.6091 17.1095L36.1701 16.8893L23.6066 10.5888C23.7288 10.3567 23.8919 10.1136 24.0944 9.81189C24.1659 9.70533 24.2423 9.59145 24.3235 9.46815C24.8263 8.70517 25.3763 7.73044 25.3763 6.29319C25.3763 4.75957 25.0261 3.40151 24.1358 2.42371C23.2295 1.42835 21.9233 1 20.3919 1C18.5508 1 17.1458 1.49123 16.1971 2.57159C15.2862 3.60882 14.9533 5.01967 14.8283 6.49257L14.7556 7.35046L15.5931 7.54988L17.685 8.04793L18.9166 8.34117V7.07512C18.9166 6.62519 19.0504 6.37454 19.1722 6.23853C19.301 6.09464 19.4736 6.01426 19.651 5.99627C19.8356 5.97756 19.9796 6.02971 20.0586 6.09126C20.1153 6.13542 20.1838 6.21466 20.1838 6.41272C20.1838 6.52846 20.147 6.67941 20.0082 6.91852C19.869 7.15817 19.6779 7.40552 19.4155 7.74516C19.3981 7.7676 19.3805 7.79044 19.3625 7.81371C18.8824 8.43559 18.2575 9.25821 17.9187 10.3836L4.8029 16.7798L4.34199 17.0045L4.25554 17.51L2.01431 30.6137L1.80952 31.811L3.02392 31.782L7.82718 31.667V44.887V45.887H8.82718H32.4596ZM30.2337 10.919L30.0163 12.0112L31.1255 12.1103L34.6915 12.4291L35.7153 12.5206L35.7786 11.4946C35.816 10.8885 36.0994 10.4692 36.59 9.74298C36.6187 9.70057 36.648 9.65712 36.6781 9.61252C37.2031 8.83352 37.8275 7.8245 37.8275 6.29319C37.8275 4.75957 37.4773 3.40151 36.587 2.42371C35.6807 1.42835 34.3745 1 32.8431 1C31.002 1 29.597 1.49123 28.6483 2.57159C27.7375 3.60882 27.4045 5.01967 27.2796 6.49257L27.2068 7.35046L28.0444 7.54988L30.1362 8.04793L31.3678 8.34117V7.07512C31.3678 6.62519 31.5016 6.37454 31.6234 6.23853C31.7522 6.09464 31.9248 6.01426 32.1023 5.99627C32.2868 5.97756 32.4309 6.02971 32.5099 6.09126C32.5665 6.13542 32.635 6.21466 32.635 6.41272C32.635 6.52819 32.5981 6.67969 32.4574 6.92097C32.3183 7.15945 32.1287 7.40485 31.8695 7.74029C31.8484 7.7675 31.8269 7.79531 31.805 7.82375C31.252 8.54012 30.5123 9.52 30.2337 10.919Z" stroke="white" stroke-width="2"/>
</svg>
