<svg width="20" height="19" viewBox="0 0 20 19" fill="none" xmlns="http://www.w3.org/2000/svg">
<path d="M1.84766 13.5122C1.84766 11.8231 4.10922 11.8231 5.24 10.6971C5.80539 10.1341 4.10922 10.1341 4.10922 7.31899C4.10922 5.44245 4.86288 4.50391 6.37078 4.50391C7.87867 4.50391 8.63234 5.44245 8.63234 7.31899C8.63234 10.1341 6.93617 10.1341 7.50156 10.6971C8.63234 11.8231 10.8939 11.8231 10.8939 13.5122" stroke="#7B7B7B" stroke-width="2" stroke-linecap="round"/>
<path d="M10.1406 12.0108C10.5681 11.7175 10.746 11.6887 11.277 11.4341C11.6921 11.235 12.0926 11.0093 12.4062 10.6971C12.9715 10.1341 11.2754 10.1341 11.2754 7.31899C11.2754 5.44245 12.029 4.50391 13.5369 4.50391C15.0448 4.50391 15.7985 5.44245 15.7985 7.31899C15.7985 10.1341 14.1023 10.1341 14.6677 10.6971C15.7985 11.8231 18.0601 11.8231 18.0601 13.5122" stroke="#7B7B7B" stroke-width="2" stroke-linecap="round"/>
</svg>
