<svg width="30" height="29" viewBox="0 0 30 29" fill="none" xmlns="http://www.w3.org/2000/svg">
<path d="M17.7865 8.51845H20.5957C20.8897 8.51845 21.0367 8.51845 21.175 8.55119C21.2976 8.58023 21.4149 8.62811 21.5224 8.69309C21.6437 8.76639 21.7477 8.86888 21.9555 9.07386L26.8387 13.889C27.0465 14.0939 27.1505 14.1964 27.2248 14.316C27.2907 14.4221 27.3393 14.5377 27.3687 14.6586C27.4019 14.795 27.4019 14.94 27.4019 15.2298V18.5925C27.4019 19.1447 27.4019 19.4209 27.3104 19.6387C27.1884 19.9291 26.9545 20.1598 26.66 20.2801C26.4391 20.3703 26.1591 20.3703 25.599 20.3703M19.5894 20.3703H17.7865M17.7865 20.3703V8.75548C17.7865 7.42795 17.7865 6.76419 17.5245 6.25714C17.294 5.81112 16.9263 5.4485 16.4739 5.22125C15.9597 4.96289 15.2866 4.96289 13.9403 4.96289H7.20947C5.86317 4.96289 5.19003 4.96289 4.67581 5.22125C4.2235 5.4485 3.85575 5.81112 3.62529 6.25714C3.36328 6.76419 3.36328 7.42795 3.36328 8.75548V17.9999C3.36328 19.309 4.43953 20.3703 5.76715 20.3703M17.7865 20.3703H12.9787M12.9787 20.3703C12.9787 22.334 11.3644 23.9259 9.37294 23.9259C7.38152 23.9259 5.76715 22.334 5.76715 20.3703M12.9787 20.3703C12.9787 18.4066 11.3644 16.8147 9.37294 16.8147C7.38152 16.8147 5.76715 18.4066 5.76715 20.3703M25.599 20.9629C25.599 22.5993 24.2537 23.9259 22.5942 23.9259C20.9347 23.9259 19.5894 22.5993 19.5894 20.9629C19.5894 19.3265 20.9347 17.9999 22.5942 17.9999C24.2537 17.9999 25.599 19.3265 25.599 20.9629Z" stroke="white" stroke-width="2" stroke-linecap="round" stroke-linejoin="round"/>
</svg>
